<svg width="130" height="130" viewBox="0 0 130 130" fill="none" xmlns="http://www.w3.org/2000/svg">
<path d="M130 75.6902V67.4763C130 63.6325 128.926 59.865 126.901 56.5982L113.404 34.8374C109.058 27.8289 101.397 23.5655 93.1496 23.5655H69.2245C67.1272 23.5655 65.0741 24.1668 63.3082 25.2982L50.7828 33.3226V81.1964H124.494C127.535 81.1964 130 78.731 130 75.6902Z" fill="#56BA54"/>
<path d="M50.7825 81.1964V72.4438C82.4947 65.3321 97.4353 43.4573 92.1179 23.5655H93.1496C101.397 23.5655 109.058 27.8289 113.404 34.8374L126.901 56.5982C128.926 59.8647 130 63.6325 130 67.4763V75.6902C130 78.7312 127.535 81.1964 124.494 81.1964H50.7825Z" fill="#56BA54"/>
<path d="M75.7509 61.8726H90.0859C95.1719 61.8726 99.2951 65.9958 99.2951 71.0818V81.1962H50.7825V33.3224L54.2105 31.1261L67.5751 56.9024C69.1587 59.9559 72.3115 61.8726 75.7509 61.8726Z" fill="#495059" fill-opacity="0.79"/>
<path d="M93.7356 53.0256H98.8371C100.332 53.0256 101.671 52.2527 102.419 50.9575C103.166 49.6626 103.166 48.1166 102.419 46.8216L98.1957 39.5074C97.6699 38.5966 96.5052 38.2843 95.5944 38.8104C94.6837 39.3362 94.3716 40.5009 94.8975 41.4117L99.1204 48.7259C99.1831 48.8346 99.1831 48.9445 99.1204 49.0532C99.0577 49.1619 98.9622 49.217 98.8371 49.217H93.7356C92.6839 49.217 91.8313 50.0696 91.8313 51.1213C91.8313 52.173 92.6839 53.0256 93.7356 53.0256Z" fill="white"/>
<path d="M81.9454 53.0256H90.3911C91.4428 53.0256 92.2954 52.1729 92.2954 51.1213C92.2954 50.0696 91.4428 49.217 90.3911 49.217H81.9454C81.82 49.217 81.7245 49.1619 81.6621 49.0532C81.5994 48.9445 81.5994 48.8346 81.6621 48.7259L84.4738 43.8555C84.9997 42.9447 84.6876 41.78 83.7769 41.2542C82.8661 40.7284 81.7017 41.0404 81.1756 41.9512L78.3638 46.8214C77.6163 48.1163 77.6161 49.6623 78.3636 50.957C79.1113 52.2524 80.4502 53.0256 81.9454 53.0256Z" fill="white"/>
<path d="M84.2339 42.3643C84.892 42.3643 85.5321 42.0228 85.8848 41.4119L90.1078 34.0976C90.1705 33.9889 90.2659 33.9341 90.3911 33.9341C90.5165 33.9341 90.6118 33.9892 90.6745 34.0976L93.4865 38.9678C94.0126 39.8788 95.177 40.1906 96.0878 39.6648C96.9985 39.1389 97.3106 37.9743 96.7847 37.0635L93.9727 32.1933C93.2252 30.8984 91.8861 30.1255 90.3911 30.1255C88.8959 30.1255 87.557 30.8987 86.8095 32.1933L82.5865 39.5076C82.0607 40.4184 82.3728 41.583 83.2835 42.1089C83.5834 42.282 83.9109 42.3643 84.2339 42.3643Z" fill="white"/>
<path d="M87.0033 55.945C87.3996 55.945 87.7993 55.8219 88.1413 55.5662L91.2201 53.2665C91.8935 52.7636 92.2954 51.9615 92.2954 51.1213C92.2954 50.2809 91.8935 49.479 91.2201 48.976L88.1413 46.6762C87.2988 46.0465 86.1054 46.2196 85.476 47.0621C84.8466 47.9046 85.0195 49.0979 85.8619 49.7273L87.7279 51.121L85.8619 52.5147C85.0195 53.1442 84.8466 54.3373 85.476 55.18C85.85 55.6809 86.4231 55.945 87.0033 55.945Z" fill="white"/>
<path d="M84.6242 42.4661C84.9832 42.4661 85.3427 42.3948 85.6789 42.2503L89.21 40.7337C90.1763 40.3189 90.6232 39.1989 90.2083 38.2325C89.7934 37.2659 88.673 36.8193 87.7071 37.2342L85.5672 38.153L85.2932 35.8405C85.1695 34.7961 84.2232 34.0497 83.1782 34.1736C82.1338 34.2972 81.3874 35.2443 81.5113 36.2886L81.9635 40.1048C82.0625 40.9397 82.5558 41.6887 83.2838 42.1089C83.6944 42.346 84.1587 42.4661 84.6242 42.4661Z" fill="white"/>
<path d="M95.7156 46.7591C96.6672 46.7591 97.4896 46.0469 97.6041 45.0788L97.8783 42.7662L100.018 43.6851C100.984 44.1007 102.104 43.6533 102.519 42.6867C102.935 41.7204 102.487 40.6006 101.521 40.1855L97.9901 38.6689C97.2179 38.3371 96.3221 38.3901 95.5942 38.8103C94.8665 39.2306 94.3729 39.9798 94.2741 40.8144L93.8219 44.6301C93.698 45.6744 94.4445 46.6215 95.4888 46.7454C95.5652 46.7548 95.6409 46.7591 95.7156 46.7591Z" fill="white"/>
<path d="M81.9454 53.0256H90.3911C91.4428 53.0256 92.2954 52.1729 92.2954 51.1213C92.2954 50.0696 91.4428 49.217 90.3911 49.217H81.9454C81.82 49.217 81.7245 49.1619 81.6621 49.0532C81.5994 48.9445 81.5994 48.8346 81.6621 48.7259L84.2128 44.3077C84.7387 43.3969 84.4266 42.2322 83.5159 41.7064C82.6051 41.1806 81.4404 41.4926 80.9146 42.4034L78.3638 46.8213C77.6163 48.1163 77.6161 49.6621 78.3636 50.957C79.1113 52.2524 80.4502 53.0256 81.9454 53.0256Z" fill="white"/>
<path d="M107.434 76.9519C108.486 76.9519 109.338 76.0992 109.338 75.0476V63.1322C109.338 62.0806 108.486 61.2279 107.434 61.2279C106.382 61.2279 105.53 62.0806 105.53 63.1322V75.0476C105.53 76.0992 106.382 76.9519 107.434 76.9519Z" fill="#80D388"/>
<path d="M115.638 76.9519C116.69 76.9519 117.542 76.0992 117.542 75.0476V63.1322C117.542 62.0806 116.69 61.2279 115.638 61.2279C114.586 61.2279 113.734 62.0806 113.734 63.1322V75.0476C113.734 76.0992 114.586 76.9519 115.638 76.9519Z" fill="#80D388"/>
<path d="M19.8217 23.5655H42.9488C47.2753 23.5655 50.7825 27.0727 50.7825 31.3993V71.0153H1.2636e-05V52.506C1.2636e-05 47.9634 1.13878 43.4931 3.31197 39.504L8.25095 30.4383C10.559 26.2018 14.9975 23.5655 19.8217 23.5655Z" fill="#56BA54"/>
<path d="M35.4527 44.5093C36.5044 44.5093 37.357 43.6567 37.357 42.605V32.9197C37.357 31.8681 36.5044 31.0154 35.4527 31.0154C34.401 31.0154 33.5484 31.8681 33.5484 32.9197V42.605C33.5484 43.6567 34.401 44.5093 35.4527 44.5093Z" fill="#80D388"/>
<path d="M42.1581 44.5093C43.2098 44.5093 44.0624 43.6567 44.0624 42.605V32.9197C44.0624 31.8681 43.2098 31.0154 42.1581 31.0154C41.1064 31.0154 40.2538 31.8681 40.2538 32.9197V42.605C40.2538 43.6567 41.1064 44.5093 42.1581 44.5093Z" fill="#80D388"/>
<path d="M6.69958 57.5529H1.56422e-05V71.0153H10.9454V61.7987C10.9454 59.4539 9.0444 57.5529 6.69958 57.5529Z" fill="#FFA011"/>
<path d="M5.38487 90.1705H114.974C117.948 90.1705 120.359 87.7596 120.359 84.7856V76.4001C120.359 73.4261 117.948 71.0153 114.974 71.0153H55.5232C52.5027 71.0153 49.6209 69.747 47.5808 67.5195L45.2494 64.9741C42.6464 62.1321 38.6862 60.9611 34.9563 61.9305L2.09221e-05 71.0153V84.7856C2.09221e-05 87.7596 2.41086 90.1705 5.38487 90.1705Z" fill="#C7C9CC"/>
<path d="M51.8266 70.3582C52.9991 70.7868 54.2483 71.015 55.523 71.015H114.974C117.948 71.015 120.359 73.4259 120.359 76.3999V84.7854C120.359 87.7594 117.948 90.1702 114.974 90.1702H35.8056C44.623 84.0196 49.5391 76.4478 51.8266 70.3582Z" fill="#B2B5B8"/>
<path d="M32.3273 106.434C23.6601 106.434 16.6339 99.4082 16.6339 90.741C16.6339 82.0737 23.6601 75.0476 32.3273 75.0476C40.9946 75.0476 48.0208 82.0737 48.0208 90.741C48.0208 99.4082 40.9946 106.434 32.3273 106.434Z" fill="#495059"/>
<path d="M32.3273 97.8606C28.3953 97.8606 25.2078 94.673 25.2078 90.741C25.2078 86.809 28.3953 83.6215 32.3273 83.6215C36.2594 83.6215 39.4469 86.809 39.4469 90.741C39.4469 94.673 36.2594 97.8606 32.3273 97.8606Z" fill="#C7C9CC"/>
<path d="M93.5188 106.434C84.8515 106.434 77.8253 99.4082 77.8253 90.741C77.8253 82.0737 84.8515 75.0476 93.5188 75.0476C102.186 75.0476 109.212 82.0737 109.212 90.741C109.212 99.4082 102.186 106.434 93.5188 106.434Z" fill="#495059"/>
<path d="M93.5188 97.8606C89.5868 97.8606 86.3992 94.673 86.3992 90.741C86.3992 86.809 89.5868 83.6215 93.5188 83.6215C97.4508 83.6215 100.638 86.809 100.638 90.741C100.638 94.673 97.4508 97.8606 93.5188 97.8606Z" fill="#C7C9CC"/>
<path d="M25.6333 44.261L0.40445 47.853C0.910739 44.9402 1.88727 42.1185 3.31168 39.504L6.89887 32.9197H25.1573C27.0225 32.9197 28.5342 34.4318 28.5342 36.2967V40.9175C28.5345 42.5989 27.298 44.0241 25.6333 44.261Z" fill="#E0F7FF"/>
<path d="M27.7329 55.0131H32.5099C33.5616 55.0131 34.4142 54.1605 34.4142 53.1088C34.4142 52.0571 33.5616 51.2045 32.5099 51.2045H27.7329C26.6812 51.2045 25.8286 52.0571 25.8286 53.1088C25.8286 54.1605 26.6812 55.0131 27.7329 55.0131Z" fill="#495059" fill-opacity="0.87"/>
</svg>
